<svg width="242" height="40" viewBox="0 0 242 40" fill="none" xmlns="http://www.w3.org/2000/svg">
<g clip-path="url(#clip0_2314_29839)">
<mask id="mask0_2314_29839" style="mask-type:luminance" maskUnits="userSpaceOnUse" x="0" y="0" width="242" height="40">
<path d="M242 0H0V40H242V0Z" fill="white"/>
</mask>
<g mask="url(#mask0_2314_29839)">
<path d="M16.6 16.6H6.6V0H0V16.6V23.2V39.8H6.6V23.2H16.6V39.8H23.2V23.2V16.6V0H16.6V16.6Z" fill="#111827"/>
<path d="M40.7001 14.1L35.6001 0H29.1001V0.5L35.0001 16.5L37.4001 23.1V39.7H44.0001V23.2L46.4001 16.6L52.3001 0H45.8001L40.7001 14.1Z" fill="#111827"/>
<path d="M76.4001 0H58.1001V39.8H64.7001V23.2H76.3001C79.1001 23.2 81.3001 21 81.3001 18.2V5C81.4001 2.2 79.1001 0 76.4001 0ZM74.7001 9.7V16.6H64.7001V6.6H74.7001V9.7Z" fill="#111827"/>
<path d="M137.1 0.100006H135.4L135.5 0.400006C135.5 0.400006 135.5 0.400006 135.4 0.400006V0.100006H118.8V39.9H125.4V6.70001H135.4V16.7H131.5L132.6 23.3L135.4 39.9H142L139.2 23.3L139.1 22.8C140.8 22 141.9 20.3 141.9 18.3V5.10001C142 2.30001 139.8 0.100006 137.1 0.100006Z" fill="#111827"/>
<path d="M162.4 33.3V0.100006H155.8V34.9C155.8 37.7 158 39.9 160.8 39.9H179V33.3H162.4Z" fill="#111827"/>
<path d="M207.5 16.6L205.8 6.6L205.5 4.8C205.5 4.3 205.4 3.8 205.3 3.4C204.7 1.4 202.8 0 200.6 0H195.7C193.4 0 191.5 1.5 190.9 3.6C190.8 3.9 190.8 4.3 190.7 4.6L190.4 6.6L188.7 16.6L187.6 23.2L184.8 39.8H191.4L194.2 23.2L195.3 16.6L196.4 9.9L196.7 8.2L196.9 6.7H199.1L199.4 8.2L199.7 9.9L200.8 16.6L201.9 23.2L204.7 39.8H211.3L208.5 23.2L207.5 16.6Z" fill="#111827"/>
<path d="M237 0H218.6V40H237C239.8 40 242 37.8 242 35V25C242 24.4 241.9 23.9 241.7 23.3C241 21.4 239.2 20 237 20C239.2 20 241 18.6 241.7 16.7C241.9 16.2 242 15.6 242 15V5C242.1 2.2 239.8 0 237 0ZM235.4 29.7V33.3H225.4V23.3H235.4V29.7ZM235.4 9.7V16.7H225.4V6.7H235.4V9.7Z" fill="#111827"/>
<path d="M87.8 16.6V34.8C87.8 37.6 90 39.8 92.8 39.8C93.4 39.8 93.7 39.8 94.5 39.8H111V33.2H94.4V23.2H111V16.6H87.8Z" fill="#111827"/>
<path d="M87.8 0V6.6H94.4H111V0H94.4H87.8Z" fill="#111827"/>
</g>
</g>
<defs>
<clipPath id="clip0_2314_29839">
<rect width="242" height="40" fill="white"/>
</clipPath>
</defs>
</svg>
